<svg width="45" height="45" viewBox="0 0 45 45" fill="none" xmlns="http://www.w3.org/2000/svg">
<path d="M25.2742 13.2871V6.2334C25.2742 5.73612 25.4718 5.2592 25.8234 4.90757C26.175 4.55594 26.6519 4.3584 27.1492 4.3584H36.063C36.5602 4.3584 37.0372 4.55594 37.3888 4.90757C37.7404 5.2592 37.938 5.73612 37.938 6.2334V39.0459C37.938 39.5432 37.7404 40.0201 37.3888 40.3717C37.0372 40.7234 36.5602 40.9209 36.063 40.9209H29.6973M10.668 22.1371H19.5817C20.079 22.1371 20.5559 22.3347 20.9075 22.6863C21.2592 23.038 21.4567 23.5149 21.4567 24.0121V40.9209H10.668C10.1707 40.9209 9.69377 40.7234 9.34214 40.3717C8.99051 40.0201 8.79297 39.5432 8.79297 39.0459V24.0121C8.79297 23.5149 8.99051 23.038 9.34214 22.6863C9.69377 22.3347 10.1707 22.1371 10.668 22.1371Z" stroke="black" stroke-width="2" stroke-linecap="round" stroke-linejoin="round"/>
<path d="M17.0332 22.1371V15.1621C17.0332 14.6648 17.2307 14.1879 17.5824 13.8363C17.934 13.4847 18.4109 13.2871 18.9082 13.2871H27.822C28.3192 13.2871 28.7961 13.4847 29.1478 13.8363C29.4994 14.1879 29.697 14.6648 29.697 15.1621V40.9209H21.4563" stroke="black" stroke-width="2" stroke-linecap="round" stroke-linejoin="round"/>
</svg>
