<svg width="46" height="46" viewBox="0 0 46 46" fill="none" xmlns="http://www.w3.org/2000/svg">
<path d="M20.4653 28.9315C19.7194 28.9315 19.004 28.6349 18.4766 28.107C17.9491 27.579 17.6528 26.8629 17.6528 26.1163V9.45825C13.4901 10.1754 9.7473 12.4287 7.16318 15.7732C4.57905 19.1177 3.34144 23.3104 3.69464 27.5237C4.04784 31.7369 5.96619 35.6645 9.071 38.5312C12.1758 41.3979 16.2415 42.9952 20.4653 43.0079C24.4534 43.0074 28.3125 41.5936 31.3586 39.017C34.4047 36.4404 36.4411 32.8675 37.1069 28.9315H20.4653ZM17.6613 6.60637C19.1997 6.38677 20.4653 7.67054 20.4653 9.22458V26.1163H37.3403C38.8928 26.1163 40.1753 27.3831 39.956 28.9231C39.2353 33.8462 36.6814 38.3144 32.8067 41.4312C28.932 44.548 24.0231 46.0827 19.065 45.7275C14.1069 45.3723 9.46644 43.1534 6.07465 39.516C2.68286 35.8787 0.790705 31.0919 0.777832 26.1163C0.778081 21.3756 2.48504 16.7938 5.58589 13.2106C8.68673 9.62737 12.9738 7.28273 17.6613 6.60637ZM26.0903 20.4857V3.59402C30.5659 3.59402 34.8581 5.37367 38.0228 8.54148C41.1874 11.7093 42.9653 16.0057 42.9653 20.4857H26.0903ZM43.1397 23.301C44.5403 23.301 45.7469 22.2706 45.775 20.8686L45.7778 20.4857C45.778 17.8654 45.2561 15.2715 44.2427 12.8555C43.2293 10.4396 41.7447 8.25022 39.8759 6.41547C38.0071 4.58071 35.7915 3.13743 33.3588 2.17006C30.926 1.20268 28.325 0.730644 25.7078 0.781552C24.3072 0.809705 23.2778 2.02028 23.2778 3.41947V20.4857C23.2778 21.2324 23.5741 21.9484 24.1016 22.4764C24.629 23.0044 25.3444 23.301 26.0903 23.301H43.1397Z" fill="#151515"/>
</svg>
