<svg width="45" height="45" viewBox="0 0 45 45" fill="none" xmlns="http://www.w3.org/2000/svg">
<path d="M17.7778 39.2865C18.5859 39.2865 19.4108 39.2629 20.2525 39.2156C20.6734 40.2545 21.1953 41.2225 21.8182 42.1196C21.1448 42.1826 20.4714 42.2298 19.798 42.2613C19.1246 42.2928 18.4512 42.3085 17.7778 42.3085C15.5219 42.3085 13.3165 42.1354 11.1616 41.7891C10.5387 41.6946 9.83165 41.5609 9.0404 41.3877C8.24916 41.2146 7.44108 40.9864 6.61616 40.703C5.79125 40.4197 4.98316 40.0971 4.19192 39.735C3.40067 39.373 2.6936 38.9402 2.07071 38.4365C1.44781 37.9328 0.951178 37.3898 0.580808 36.8074C0.210438 36.2251 0.016835 35.5404 0 34.7534V7.55509C0 6.8468 0.159933 6.21721 0.479798 5.66632C0.799663 5.11542 1.22896 4.59601 1.76768 4.10808C2.34007 3.57293 3.02189 3.10073 3.81313 2.6915C4.60438 2.28227 5.47138 1.92812 6.41414 1.62907C7.3569 1.33001 8.32492 1.0703 9.31818 0.849948C10.3114 0.629591 11.3131 0.464323 12.3232 0.354145C13.3333 0.243966 14.2929 0.157398 15.202 0.0944386C16.1111 0.0314795 16.9697 0 17.7778 0C18.9899 0 20.3283 0.0629591 21.7929 0.188877C23.2576 0.314795 24.7306 0.527282 26.2121 0.826338C27.6936 1.12539 29.0993 1.55037 30.4293 2.10126C31.7593 2.65215 32.8788 3.32109 33.7879 4.10808C34.3098 4.56453 34.7306 5.08395 35.0505 5.66632C35.3704 6.24869 35.5387 6.87828 35.5556 7.55509V21.0598H32.3232V12.0409C31.3131 12.6233 30.2104 13.1112 29.0152 13.5047C27.8199 13.8982 26.5825 14.213 25.303 14.4491C24.0236 14.6852 22.7441 14.8505 21.4646 14.9449C20.1852 15.0393 18.9562 15.0944 17.7778 15.1102C16.6162 15.1102 15.3956 15.063 14.1162 14.9685C12.8367 14.8741 11.5488 14.7009 10.2525 14.4491C8.95623 14.1973 7.71886 13.8825 6.5404 13.5047C5.36195 13.127 4.25926 12.639 3.23232 12.0409V34.7534C3.23232 35.0682 3.35017 35.3594 3.58586 35.627C3.82155 35.8945 4.06566 36.1149 4.31818 36.288C5.10943 36.8704 6.06902 37.3505 7.19697 37.7282C8.32492 38.106 9.5202 38.4129 10.7828 38.649C12.0455 38.8851 13.2828 39.0504 14.4949 39.1448C15.7071 39.2392 16.8013 39.2865 17.7778 39.2865ZM17.7778 3.02204C16.9192 3.02204 16.0269 3.04565 15.101 3.09286C14.1751 3.14008 13.2323 3.23452 12.2727 3.37618C11.3131 3.51784 10.3872 3.69098 9.49495 3.89559C8.60269 4.10021 7.75253 4.35992 6.94444 4.67471C6.69192 4.76915 6.35522 4.91081 5.93434 5.09969C5.51347 5.28856 5.10101 5.51679 4.69697 5.78437C4.29293 6.05194 3.94781 6.32739 3.66162 6.6107C3.37542 6.89402 3.23232 7.20881 3.23232 7.55509C3.23232 7.68101 3.25758 7.79906 3.30808 7.90923C3.35859 8.01941 3.42593 8.12959 3.5101 8.23977C3.88047 8.74344 4.41077 9.19202 5.10101 9.58552C5.79125 9.97901 6.56566 10.3174 7.42424 10.6007C8.28283 10.8841 9.19192 11.1201 10.1515 11.309C11.1111 11.4979 12.0623 11.6474 13.0051 11.7576C13.9478 11.8678 14.8232 11.9544 15.6313 12.0173C16.4394 12.0803 17.1549 12.1039 17.7778 12.0881C18.367 12.0881 19.0741 12.0645 19.899 12.0173C20.7239 11.9701 21.6077 11.8914 22.5505 11.7812C23.4933 11.671 24.436 11.5136 25.3788 11.309C26.3215 11.1044 27.2391 10.8683 28.1313 10.6007C29.0236 10.3332 29.7896 10.0026 30.4293 9.60913C31.069 9.21563 31.6077 8.75918 32.0455 8.23977C32.1296 8.12959 32.197 8.01941 32.2475 7.90923C32.298 7.79906 32.3232 7.68101 32.3232 7.55509C32.3232 7.22455 32.1801 6.90976 31.8939 6.6107C31.6077 6.31165 31.2626 6.0362 30.8586 5.78437C30.4545 5.53253 30.0421 5.31217 29.6212 5.12329C29.2003 4.93442 28.8636 4.78489 28.6111 4.67471C27.8199 4.37566 26.9697 4.12382 26.0606 3.9192C25.1515 3.71459 24.2256 3.54145 23.2828 3.39979C22.3401 3.25813 21.4057 3.16369 20.4798 3.11647C19.5539 3.06925 18.6532 3.03778 17.7778 3.02204ZM41.8687 33.2188C41.9697 33.691 42.0202 34.171 42.0202 34.659C42.0202 35.1469 41.9697 35.627 41.8687 36.0992L45 37.3033L43.7626 40.1128L40.6313 38.8851C40.0421 39.6878 39.3182 40.3646 38.4596 40.9155L39.7727 43.8431L36.7677 45L35.4798 42.0724C34.9747 42.1668 34.4613 42.2141 33.9394 42.2141C33.4175 42.2141 32.904 42.1668 32.399 42.0724L31.1111 45L28.1061 43.8431L29.4192 40.9155C28.5606 40.3646 27.8367 39.6878 27.2475 38.8851L24.1162 40.1128L22.8788 37.3033L26.0101 36.0992C25.9091 35.627 25.8586 35.1469 25.8586 34.659C25.8586 34.171 25.9091 33.691 26.0101 33.2188L22.8788 32.0147L24.1162 29.2051L27.2475 30.4328C27.8367 29.6301 28.5606 28.9533 29.4192 28.4024L28.1061 25.4748L31.1111 24.3179L32.399 27.2455C32.904 27.1511 33.4175 27.1039 33.9394 27.1039C34.4613 27.1039 34.9747 27.1511 35.4798 27.2455L36.7677 24.3179L39.7727 25.4748L38.4596 28.4024C39.3182 28.9533 40.0421 29.6301 40.6313 30.4328L43.7626 29.2051L45 32.0147L41.8687 33.2188ZM33.9394 39.192C34.6128 39.192 35.2441 39.074 35.8333 38.8379C36.4226 38.6018 36.936 38.2791 37.3737 37.8699C37.8114 37.4606 38.1566 36.9806 38.4091 36.4297C38.6616 35.8788 38.7879 35.2886 38.7879 34.659C38.7879 34.0294 38.6616 33.4391 38.4091 32.8882C38.1566 32.3374 37.8114 31.8573 37.3737 31.4481C36.936 31.0388 36.4226 30.7162 35.8333 30.4801C35.2441 30.244 34.6128 30.1259 33.9394 30.1259C33.266 30.1259 32.6347 30.244 32.0455 30.4801C31.4562 30.7162 30.9428 31.0388 30.505 31.4481C30.0673 31.8573 29.7222 32.3374 29.4697 32.8882C29.2172 33.4391 29.0909 34.0294 29.0909 34.659C29.0909 35.2886 29.2172 35.8788 29.4697 36.4297C29.7222 36.9806 30.0673 37.4606 30.505 37.8699C30.9428 38.2791 31.4562 38.6018 32.0455 38.8379C32.6347 39.074 33.266 39.192 33.9394 39.192Z" fill="#1C1C1C"/>
</svg>
